# xmcd
# 
# Track frame offsets:
#     150
#     14835
#     29602
#     49978
#     63309
#     84792
#     108923
#     125430
#     149220
#     161410
# 
# Disc length: 2423
# 
# Revision: 0
# Processed by: cddbd v1.5.2PL0 Copyright (c) Steve Scherf et al.
# Submitted via: fre:ac v1.0.27
# 
DISCID=8b09750a
DTITLE=Danny Lee Dunn - Danny Lee Dunn
DYEAR=2011
DGENRE=Country
TTITLE0=Stuck On Yellow
TTITLE1=Back To The Good Life
TTITLE2=Ever Crossed Your Heart
TTITLE3=Breakin' Up With Your Mom
TTITLE4=Meanest Nice Guy
TTITLE5=Waiting For Life
TTITLE6=Turn 'Em Country
TTITLE7=Losing My Own War
TTITLE8=Can You Feel Me
TTITLE9=He Is Real
EXTD=
EXTT0=
EXTT1=
EXTT2=
EXTT3=
EXTT4=
EXTT5=
EXTT6=
EXTT7=
EXTT8=
EXTT9=
PLAYORDER=
